<?xml version="1.0" standalone="no"?>
<!DOCTYPE svg PUBLIC "-//W3C//DTD SVG 20010904//EN"
 "http://www.w3.org/TR/2001/REC-SVG-20010904/DTD/svg10.dtd">
<svg version="1.0" xmlns="http://www.w3.org/2000/svg"
 width="2400.000000pt" height="1600.000000pt" viewBox="0 0 2400.000000 1600.000000"
 preserveAspectRatio="xMidYMid meet">

<g transform="translate(0.000000,1600.000000) scale(0.100000,-0.100000)"
fill="#000000" stroke="none">
<path d="M0 8325 l0 -7675 33 -1 c17 -1 129 -1 247 -1 l215 1 115 37 115 36
229 4 c225 3 230 4 265 28 43 30 151 80 206 95 188 52 315 66 430 48 l80 -12
70 56 c100 81 207 159 215 159 5 0 37 17 71 38 78 47 205 108 277 133 59 20
325 61 381 58 36 -2 108 11 211 37 30 8 71 14 91 14 25 0 48 10 78 33 24 17
59 44 79 60 106 80 437 212 577 230 22 3 69 16 105 30 36 14 88 28 115 32 28
4 73 17 100 27 56 23 87 33 160 53 65 18 220 98 259 133 57 50 130 98 231 148
98 50 178 78 478 169 82 25 201 70 265 101 131 63 197 88 263 99 55 9 167 66
201 102 14 16 51 64 84 108 52 72 149 175 165 175 3 0 36 24 73 54 65 51 264
166 316 181 14 4 82 34 153 67 70 32 161 67 203 78 50 12 121 43 212 93 202
110 264 139 402 189 191 69 263 89 368 100 53 6 139 19 189 29 51 10 104 19
118 19 14 0 64 22 112 49 49 26 147 76 218 111 72 34 168 81 215 104 47 23
112 50 145 61 33 10 85 26 115 36 95 31 169 38 395 38 121 -1 249 4 285 10 36
6 97 10 135 10 39 -1 106 4 150 10 135 17 378 6 427 -20 10 -5 69 -10 130 -10
62 0 143 -4 180 -10 60 -9 74 -8 123 10 31 12 63 21 73 21 9 0 37 11 62 24 66
35 317 133 455 177 181 58 289 72 580 76 220 2 260 5 335 25 167 44 497 20
728 -52 53 -16 117 -30 143 -30 70 0 186 -25 260 -55 35 -14 125 -37 199 -50
74 -14 169 -31 210 -39 41 -8 111 -17 155 -20 152 -9 413 -51 505 -81 66 -21
322 -57 399 -57 71 1 455 -51 509 -69 48 -16 347 -14 402 2 25 7 51 17 59 23
7 6 53 70 102 144 96 146 94 139 104 328 6 121 22 199 61 284 23 51 24 60 13
106 -7 30 -13 161 -15 334 -4 321 -6 303 89 720 19 85 38 191 42 235 3 44 17
150 31 235 26 157 42 279 48 360 5 52 -19 134 -75 261 -21 48 -45 111 -53 140
-8 30 -24 88 -35 129 -29 104 -36 218 -18 305 55 262 82 369 116 458 21 56 47
138 56 182 9 44 26 105 37 135 18 47 21 76 19 189 -1 74 -4 138 -7 143 -3 5
-10 78 -16 161 -5 84 -14 211 -19 282 -22 317 -22 403 1 548 22 142 40 207 80
288 l23 47 -18 78 c-9 44 -27 115 -38 159 -21 78 -21 108 -27 1085 -3 553 -9
1016 -14 1030 -38 114 -87 286 -95 334 -14 76 -14 277 -1 347 6 30 15 106 20
169 12 139 29 209 79 320 21 47 50 121 65 165 l26 80 0 670 c0 375 -4 701 -10
740 -5 39 -9 148 -10 242 0 196 25 392 66 504 13 37 24 69 24 73 0 3 -3780 6
-8400 6 l-8400 0 0 -7675z"/>
<path d="M18605 15950 c14 -27 31 -74 39 -103 8 -30 24 -74 36 -98 66 -129 97
-289 81 -419 -6 -45 -13 -84 -15 -88 -11 -19 -56 -206 -56 -236 0 -46 -39
-303 -51 -334 -13 -33 -12 -584 1 -652 5 -27 10 -171 10 -318 0 -147 4 -291
10 -321 16 -84 12 -285 -6 -371 -9 -41 -16 -95 -16 -120 13 -556 13 -610 2
-677 -11 -63 -11 -77 3 -106 25 -51 47 -144 53 -222 8 -97 43 -263 74 -351 10
-28 24 -88 30 -135 10 -75 22 -134 61 -300 5 -26 16 -82 24 -125 8 -44 24
-110 36 -149 19 -60 22 -100 26 -285 6 -285 -16 -447 -84 -620 -103 -261 -94
-203 -93 -609 0 -198 5 -383 10 -411 5 -27 10 -196 10 -374 0 -250 3 -340 15
-393 21 -97 31 -134 45 -168 34 -86 39 -165 36 -595 -2 -454 -12 -569 -57
-703 -18 -52 -21 -85 -21 -202 1 -85 7 -168 16 -211 9 -43 17 -151 21 -275 3
-145 10 -219 21 -254 9 -30 17 -97 19 -165 2 -103 7 -130 48 -260 25 -80 48
-176 52 -215 3 -38 13 -90 20 -115 19 -59 33 -179 40 -318 3 -63 9 -132 14
-155 6 -23 15 -107 21 -187 6 -80 18 -174 27 -210 8 -36 17 -126 19 -204 l4
-139 68 -106 c97 -149 154 -246 192 -321 97 -194 170 -275 415 -461 102 -78
299 -198 430 -262 22 -11 66 -37 97 -58 31 -22 62 -39 67 -39 6 0 11 -4 11 -8
0 -5 17 -16 39 -25 53 -24 154 -90 192 -127 18 -17 86 -63 152 -103 65 -40
149 -98 185 -129 37 -32 83 -63 102 -70 47 -15 117 -48 162 -76 20 -13 112
-48 204 -78 92 -30 185 -64 207 -76 22 -11 81 -36 131 -55 143 -55 297 -122
325 -142 33 -23 128 -48 211 -56 92 -9 122 -17 246 -62 60 -22 156 -55 214
-73 58 -17 130 -40 160 -50 30 -10 82 -23 115 -29 67 -12 281 -91 335 -123
140 -83 222 -128 235 -128 9 0 26 -6 38 -14 12 -8 58 -19 101 -25 43 -6 100
-18 125 -27 25 -9 61 -20 79 -24 l32 -8 0 7499 0 7499 -2710 0 -2710 0 25 -50z"/>
</g>
</svg>
