<?xml version="1.0" standalone="no"?>
<!DOCTYPE svg PUBLIC "-//W3C//DTD SVG 20010904//EN"
 "http://www.w3.org/TR/2001/REC-SVG-20010904/DTD/svg10.dtd">
<svg version="1.0" xmlns="http://www.w3.org/2000/svg"
 width="2400.000000pt" height="1600.000000pt" viewBox="0 0 2400.000000 1600.000000"
 preserveAspectRatio="xMidYMid meet">

<g transform="translate(0.000000,1600.000000) scale(0.100000,-0.100000)"
fill="#000000" stroke="none">
<path d="M0 8325 l0 -7675 33 -1 c17 -1 129 -1 247 -1 l215 1 115 37 115 36
229 4 c225 3 230 4 265 28 43 30 151 80 206 95 188 52 315 66 430 48 l80 -12
70 56 c100 81 207 159 215 159 5 0 37 17 71 38 78 47 205 108 277 133 59 20
325 61 381 58 36 -2 108 11 211 37 30 8 71 14 91 14 25 0 48 10 78 33 24 17
59 44 79 60 106 80 437 212 577 230 22 3 69 16 105 30 36 14 88 28 115 32 28
4 73 17 100 27 56 23 87 33 160 53 65 18 220 98 259 133 57 50 130 98 231 148
98 50 178 78 478 169 82 25 201 70 265 101 131 63 197 88 263 99 55 9 167 66
201 102 14 16 51 64 84 108 52 72 149 175 165 175 3 0 36 24 73 54 65 51 264
166 316 181 14 4 82 34 153 67 70 32 161 67 203 78 50 12 121 43 212 93 202
110 264 139 402 189 191 69 263 89 368 100 53 6 139 19 189 29 51 10 105 19
121 19 15 0 39 8 52 17 14 10 116 63 228 119 l202 101 3 409 3 409 47 200 c42
179 47 213 47 320 0 82 5 138 16 175 12 40 19 121 24 290 5 155 12 247 21 270
11 28 15 340 21 1655 4 891 12 1809 18 2040 6 231 12 798 15 1260 5 760 4 843
-11 880 -9 22 -18 76 -21 120 -3 44 -14 123 -24 177 -21 106 -27 413 -10 504
5 27 12 83 16 124 7 77 24 138 55 200 9 19 20 68 23 109 4 49 15 91 31 125
l25 52 4 869 c3 596 8 892 16 940 18 111 31 256 40 450 12 239 33 383 66 442
14 25 25 47 25 49 0 2 -2110 4 -4690 4 l-4690 0 0 -7675z"/>
<path d="M9920 15957 c52 -78 58 -145 23 -249 -16 -44 -15 -53 5 -160 12 -62
22 -142 22 -177 0 -50 6 -76 28 -120 l27 -56 -1 -565 c-1 -673 -13 -1036 -37
-1095 -11 -28 -17 -85 -20 -185 -3 -97 -10 -160 -21 -190 -13 -39 -16 -105
-16 -466 0 -387 2 -427 19 -485 50 -167 54 -248 57 -1284 l3 -940 -25 -110
c-26 -113 -33 -199 -54 -695 -18 -444 -29 -627 -41 -665 -6 -22 -15 -155 -20
-295 -5 -140 -11 -276 -15 -301 -5 -39 -1 -54 25 -100 18 -33 34 -81 41 -124
6 -38 18 -95 27 -125 31 -106 14 -420 -28 -535 -20 -52 -23 -87 -29 -275 -5
-169 -10 -223 -23 -254 -21 -47 -24 -276 -5 -383 9 -58 8 -80 -7 -148 -9 -44
-21 -117 -26 -162 -4 -44 -15 -98 -25 -120 -14 -32 -16 -75 -15 -293 2 -244 3
-258 26 -315 13 -34 29 -94 34 -135 6 -41 17 -100 26 -130 12 -44 15 -120 15
-391 l0 -336 51 8 c28 5 84 8 123 8 39 -1 107 4 151 10 135 17 378 6 427 -20
10 -5 69 -10 130 -10 62 0 143 -4 180 -10 60 -9 74 -8 123 10 31 12 63 21 73
21 9 0 37 11 62 24 66 35 317 133 455 177 181 58 289 72 580 76 220 2 260 5
335 25 167 44 497 20 728 -52 53 -16 117 -30 143 -30 70 0 186 -25 260 -55 35
-14 125 -37 199 -50 74 -14 169 -31 210 -39 41 -8 111 -17 155 -20 152 -9 413
-51 505 -81 66 -21 322 -57 399 -57 71 1 455 -51 509 -69 48 -16 347 -14 402
2 25 7 51 17 59 23 7 6 53 70 102 144 96 146 94 139 104 328 6 121 22 199 61
284 23 51 24 60 13 106 -7 30 -13 161 -15 334 -4 321 -6 303 89 720 19 85 38
191 42 235 3 44 17 150 31 235 26 157 42 279 48 360 5 52 -19 134 -75 261 -21
48 -45 111 -53 140 -8 30 -24 88 -35 129 -29 104 -36 218 -18 305 55 262 82
369 116 458 21 56 47 138 56 182 9 44 26 105 37 135 18 47 21 76 19 189 -1 74
-4 138 -7 143 -3 5 -10 78 -16 161 -5 84 -14 211 -19 282 -22 317 -22 403 1
548 22 142 40 207 80 288 l23 47 -18 78 c-9 44 -27 115 -38 159 -21 78 -21
108 -27 1085 -3 553 -9 1016 -14 1030 -38 114 -87 286 -95 334 -14 76 -14 277
-1 347 6 30 15 106 20 169 12 139 29 209 79 320 21 47 50 121 65 165 l26 80 0
670 c0 375 -4 701 -10 740 -5 39 -9 148 -10 242 0 196 25 392 66 504 13 37 24
69 24 73 0 3 -1555 6 -3455 6 l-3454 0 29 -43z"/>
<path d="M18605 15950 c14 -27 31 -74 39 -103 8 -30 24 -74 36 -98 66 -129 97
-289 81 -419 -6 -45 -13 -84 -15 -88 -11 -19 -56 -206 -56 -236 0 -46 -39
-303 -51 -334 -13 -33 -12 -584 1 -652 5 -27 10 -171 10 -318 0 -147 4 -291
10 -321 16 -84 12 -285 -6 -371 -9 -41 -16 -95 -16 -120 13 -556 13 -610 2
-677 -11 -63 -11 -77 3 -106 25 -51 47 -144 53 -222 8 -97 43 -263 74 -351 10
-28 24 -88 30 -135 10 -75 22 -134 61 -300 5 -26 16 -82 24 -125 8 -44 24
-110 36 -149 19 -60 22 -100 26 -285 6 -285 -16 -447 -84 -620 -103 -261 -94
-203 -93 -609 0 -198 5 -383 10 -411 5 -27 10 -196 10 -374 0 -250 3 -340 15
-393 21 -97 31 -134 45 -168 34 -86 39 -165 36 -595 -2 -454 -12 -569 -57
-703 -18 -52 -21 -85 -21 -202 1 -85 7 -168 16 -211 9 -43 17 -151 21 -275 3
-145 10 -219 21 -254 9 -30 17 -97 19 -165 2 -103 7 -130 48 -260 25 -80 48
-176 52 -215 3 -38 13 -90 20 -115 19 -59 33 -179 40 -318 3 -63 9 -132 14
-155 6 -23 15 -107 21 -187 6 -80 18 -174 27 -210 8 -36 17 -126 19 -204 l4
-139 68 -106 c97 -149 154 -246 192 -321 97 -194 170 -275 415 -461 102 -78
299 -198 430 -262 22 -11 66 -37 97 -58 31 -22 62 -39 67 -39 6 0 11 -4 11 -8
0 -5 17 -16 39 -25 53 -24 154 -90 192 -127 18 -17 86 -63 152 -103 65 -40
149 -98 185 -129 37 -32 83 -63 102 -70 47 -15 117 -48 162 -76 20 -13 112
-48 204 -78 92 -30 185 -64 207 -76 22 -11 81 -36 131 -55 143 -55 297 -122
325 -142 33 -23 128 -48 211 -56 92 -9 122 -17 246 -62 60 -22 156 -55 214
-73 58 -17 130 -40 160 -50 30 -10 82 -23 115 -29 67 -12 281 -91 335 -123
140 -83 222 -128 235 -128 9 0 26 -6 38 -14 12 -8 58 -19 101 -25 43 -6 100
-18 125 -27 25 -9 61 -20 79 -24 l32 -8 0 7499 0 7499 -2710 0 -2710 0 25 -50z"/>
</g>
</svg>
